<svg width="15" height="18" viewBox="0 0 15 18" fill="none" xmlns="http://www.w3.org/2000/svg">
<path d="M9.87329 2.99023C9.28931 3.69775 8.30103 4.22559 7.51489 4.22559C7.42505 4.22559 7.33521 4.21436 7.27905 4.20312C7.26782 4.1582 7.24536 4.02344 7.24536 3.88867C7.24536 2.99023 7.70581 2.0918 8.19995 1.53027C8.82886 0.789062 9.88452 0.23877 10.7605 0.205078C10.783 0.306152 10.7942 0.429688 10.7942 0.553223C10.7942 1.45166 10.4124 2.33887 9.87329 2.99023ZM10.491 4.4165C10.9851 4.4165 12.7708 4.46143 13.9387 6.146C13.8376 6.22461 12.0632 7.22412 12.0632 9.45898C12.0632 12.042 14.3206 12.9629 14.3879 12.9854C14.3767 13.0415 14.0286 14.2319 13.1975 15.4561C12.4563 16.5229 11.6702 17.6011 10.491 17.6011C9.30054 17.6011 8.99731 16.9048 7.63843 16.9048C6.302 16.9048 5.83032 17.6235 4.7522 17.6235C3.66284 17.6235 2.9104 16.624 2.04565 15.4111C1.03491 13.9736 0.226318 11.75 0.226318 9.63867C0.226318 6.2583 2.42749 4.46143 4.59497 4.46143C5.74048 4.46143 6.69507 5.21387 7.42505 5.21387C8.11011 5.21387 9.177 4.4165 10.491 4.4165Z" fill="black"/>
</svg>
